<svg  height="100%" width="100%" viewBox="0 0 512 512" xmlns="http://www.w3.org/2000/svg"><circle cx="256" cy="256" r="256"/><path d="M360.5 154.5c-10-9.9-22-14.9-36.1-14.9-14 0-26 5-35.9 15s-14.9 21.9-14.9 35.8c0 14 5 26 14.9 35.9 9.9 9.9 21.9 14.9 35.9 14.9s26.1-5 36.1-14.9 15-21.9 15-35.9-5-25.9-15-35.9zm30.9-30.7C372.9 105.3 350.5 96 324.1 96c-26 0-48.2 9.2-66.6 27.5S229.7 164 229.3 190l-59.2 84.7c-1.6-.2-4-.3-7.4-.3-13.2 0-25.2 3.3-36 9.7L1 233.8c-.6 7.3-1 14.7-1 22.2 0 24.5 3.4 48.1 9.8 70.6l84 33.6c3.5 16.1 11.7 29.5 24.6 40s27.7 15.8 44.3 15.8c18.3 0 34.1-6.1 47.6-18.4s21.1-27.5 22.9-45.5l90.8-66.3c26.3 0 48.7-9.3 67.2-27.8s27.8-40.8 27.8-67c.1-26.3-9.1-48.7-27.6-67.2zM199.7 382.2c-10.2 10.1-22.5 15.1-36.8 15.1-9.8 0-18.9-2.6-27.1-7.6-8.3-5.1-14.6-11.8-18.9-20.3 9.1 3.5 17.7 7 25.8 10.5 10.5 4.2 21 4.1 31.6-.4 10.5-4.5 18-12.1 22.4-22.8 4.2-10.5 4.1-21-.4-31.6-4.5-10.5-12.1-17.9-22.8-22.1l-21.6-8.7c3.9-.9 7.5-1.3 11-1.3 14.4 0 26.7 5 36.8 15.1 10.2 10.1 15.3 22.4 15.3 37s-5.2 27-15.3 37.1zm169.4-146.3c-12.5 12.4-27.5 18.5-45 18.5s-32.5-6.2-44.9-18.5-18.6-27.3-18.6-44.9c0-17.5 6.2-32.5 18.6-45s27.3-18.7 44.9-18.7c17.7 0 32.8 6.2 45.1 18.5s18.5 27.4 18.5 45.1c.1 17.6-6.1 32.6-18.6 45zm-44.7-96.2c-14 0-26 5-35.9 15s-14.9 21.9-14.9 35.8c0 14 5 26 14.9 35.9s21.9 14.9 35.9 14.9 26.1-5 36.1-14.9 15-21.9 15-35.9-5-26-15-35.9-22.1-14.9-36.1-14.9zm36.1 14.8c-10-9.9-22-14.9-36.1-14.9-14 0-26 5-35.9 15s-14.9 21.9-14.9 35.8c0 14 5 26 14.9 35.9 9.9 9.9 21.9 14.9 35.9 14.9s26.1-5 36.1-14.9 15-21.9 15-35.9-5-25.9-15-35.9z" fill="#FFF"/></svg>