<svg version="1.0" xmlns="http://www.w3.org/2000/svg" width="1200" height="1200" viewBox="0 0 900 900"><path d="M490.7 173.1c-14.4 2.1-25.4 12.8-31.4 30.2-2.4 7.3-2.8 9.7-2.8 20.9 0 6.9.4 13 .8 13.4.4.4 6.3-.5 13-2.2l12.2-3 .7-10.8c.5-9 1.1-11.7 3.5-16.4 3.3-6.8 7.9-10.2 13.5-10.2 10.8 0 14.7 8.2 11.7 24.4-.6 3.2-.8 6-.5 6.3.3.4 6.3-.6 13.3-2 8.8-1.8 13.1-3.1 14-4.3 1.9-2.6 1.7-18.8-.3-25.5-.9-3-2.7-7.1-4.1-9.1-6.9-10.2-23.6-14.6-43.6-11.7zM358.3 174c-2.3.5-10.4 2.7-18 4.9-27.5 8.1-25.7 7.3-26.4 11-.9 4.5-3.4 74.4-2.7 76.3.5 1.1 1.9 1.4 6 1 2.9-.2 17.4-1.1 32.3-2l27-1.7.6-4c.4-2.2.9-7.4 1-11.5l.3-7.5-3.4.1c-1.9 0-11.1.4-20.4.8l-16.9.8.6-6.2c.3-3.4.8-6.5 1.2-6.8.4-.4 8.5-1.1 18.1-1.6 20.1-1.1 18.2.3 18.6-13.6.3-8.5.3-8.5-2.2-8.4-1.4.1-9.6.4-18.2.8l-15.8.7v-3.8c0-2.1.4-4.3.8-5 .5-.7 7.3-1.5 19.7-2.2 10.4-.6 19.3-1.5 19.8-2s1.1-5.4 1.4-11l.6-10.1-9.9.1c-5.4.1-11.8.5-14.1.9zM544.2 177.6c-1.4 5.3-3.5 18.4-3 18.9.2.2 3.6-.3 7.6-1 5.8-1.1 51.6-8.6 68.4-11.1 3.5-.5 5.7-2.9 4.1-4.5-.7-.6-24.9-2.6-67.5-5.5l-8.7-.6-.9 3.8zM291 178.1c-5.8.5-11.4 1.1-12.6 1.4-2 .4-2.1 1.2-2.7 27.2-.4 14.7-.3 27.1.1 27.5.4.4 6.4-1.2 13.2-3.6l12.5-4.4.6-7.4c1.2-14.2 1.4-41.1.4-41.3-.5-.1-5.7.2-11.5.6zM238.1 183.6c-5.8.7-11.1 1.6-11.8 1.8-2.6 1-1.1 63.2 1.5 65.8.8.8 4.5-.2 12.7-3.3l11.6-4.4.1-30.5c.1-29.4.1-30.5-1.8-30.6-1-.1-6.6.4-12.3 1.2zM654.2 190.7c-7.1 12.3-11.7 21.1-11.2 21.6s48.9-4.8 49.5-5.4c.8-.9-.9-17-1.9-18.4-.7-.9-5.3-1.9-13.8-3-19.4-2.3-18.1-2.6-22.6 5.2zM591.5 194.1c-14.3 2.1-27.1 4.1-28.5 4.5l-2.5.6 2.3.9c1.7.6 2.1 1.4 1.7 3.1-3.3 14.4-10.7 57.3-10.3 60 .3 2.4-.2 2.3 14.1 3.2 10.6.7 10.7.6 11.6-1.7.9-2.4 5.1-23.4 9.5-47.6 1.3-7.3 2.8-13.7 3.3-14.1.4-.4 4.6-.4 9.3 0 13.6 1.4 13.9 1.3 15.1-1.7 1.4-3.9 2.3-11.3 1.3-11.2-.5.1-12.6 1.8-26.9 4zM176 192.6c-12.3 3.3-21 8.6-25.9 15.8-3.2 4.6-6.7 12.4-5.9 13.2.4.4 62.4-24.2 63.7-25.3 1-.8-1.3-1.7-8.6-3.4-9.2-2.2-15.8-2.3-23.3-.3zM724.3 193c-5.8 1.2-11.6 4.4-15.9 8.7-3.7 3.6-10.2 15.9-9 17 .6.7 19.5 6.3 21.2 6.3.7 0 1.5-1.1 1.8-2.4.9-3.6 6-8.6 8.8-8.6 1.4 0 3.3.8 4.2 1.9 2.4 2.6.6 6.1-5 9.6-2.4 1.5-4.4 3.2-4.4 3.7 0 .9 25.5 1 30.4.1 4-.8 5.9-5.8 5.4-14.3-.3-5.3-.9-7.3-3.3-10.7-5.3-7.3-12.4-10.9-23.7-11.7-3.4-.3-8.2-.1-10.5.4zM197.2 206.9c-8.4 3.2-15.6 6.1-15.9 6.5-.4.3 1.1.6 3.1.6 5.6 0 10 4.7 11.6 12.5 1.1 5.5 1 20.8-.2 22-.3.3-3-.6-6.1-2.1-3.2-1.4-6.4-2.4-7.4-2.2-.9.2-2.4 2.4-3.4 5.3-2.4 6.9-2.3 8.4.6 9.1 1.4.3 2.5 1.1 2.5 1.6 0 1.7-5.3-.2-8.1-2.9-3.5-3.3-5.3-10-5.4-19.8 0-9.3 1.5-14.3 5.7-19.1 1.7-1.9 2.6-3.4 2.2-3.3-.5 0-8.3 3-17.4 6.7l-16.5 6.7.1 14c.1 13 .3 14.5 2.9 21 6.5 15.8 19.7 22.4 38.9 19.5 4.3-.6 10.2-1.9 13.1-2.9l5.2-1.7 8.1 4.9c4.4 2.7 8.5 4.6 9 4.3 1.1-.6 7.2-16 7.2-17.9 0-.7-2.3-2.3-5.1-3.5-3.9-1.9-4.9-2.7-4.3-4 4.5-10.8 5.6-17 5.6-30.2 0-11-.4-14.6-2.1-19.3-2.3-6.4-5.6-11.7-7.4-11.7-.7.1-8.1 2.7-16.5 5.9zM677 214.3c-.3.3-4.3.8-9 1.1-10.5.8-25.2 2.4-25.5 2.8-2.6 2.9-28.5 48.8-28.5 50.4 0 1.3 4.1 2 17.2 3l8.7.7 3.3-6.7c2.4-4.9 3.7-6.6 5.3-6.6 2 0 13.4 1.5 19.3 2.5l3.2.6v6.9c0 8-1.1 7.2 12.9 9 4.5.6 8.6.9 8.9.6.5-.6-1.3-40-2.6-56.1l-.7-8-6-.3c-3.4-.2-6.3-.1-6.5.1zM521.1 228.5c-10.6 2.1-11.6 2.5-14.5 5.8-4 4.5-6.4 5.7-11.9 5.7-3 0-5.3-.7-7.1-2.1l-2.7-2.1-12.7 2.9-12.7 2.8.2 3c.6 7.9 11.1 15.7 23.8 17.7 23.2 3.6 40-4.5 49.4-23.6 2.3-4.6 4.1-9.3 4.1-10.5 0-2.6-.9-2.6-15.9.4zM287.9 235.2c-11.7 3.8-12.7 4.3-14.5 7.5-3.2 6.1-10 8.5-15.8 5.8-3.1-1.5-3.8-1.4-15.2 2.6-6.5 2.3-12.3 4.5-12.8 4.9-1.3 1.3 3.8 9.3 8 12.5 6.9 5.2 9.3 5.6 26.1 3.6 12.5-1.4 15.7-2.2 19.5-4.4 5.9-3.5 10.4-8.7 14-16.3 3-6.4 5.5-18.2 4.1-19.4-.4-.5-6.5 1-13.4 3.2zM716.2 235.6c-2.7 1.8-6.8 9.6-7.7 14.5l-.7 3.6 10.7 1.6c10.9 1.7 12.5 1.6 12.5-.7 0-2.6 4.4-6.8 12.4-12 13.6-8.8 13.7-8.6-7.1-8.6-14.6 0-18.3.3-20.1 1.6zM706.1 257.8c-1.4 2.5-6.1 21.5-5.5 22.1.3.3 5.4 1.2 11.5 2.2 11.1 1.6 11.1 1.6 12-.5 1.8-4.4 6-20.6 5.5-21.4-.3-.5-4.7-1.5-9.8-2.1-5.1-.7-10.1-1.5-11-1.7-1-.3-2.1.3-2.7 1.4zM595.1 357.4c-2.8 5.2-5.1 10.3-5.1 11.3 0 2.2 5.4 5.7 7.5 4.9 1.2-.4 11.5-19.4 11.5-21.1 0-.8-6.3-4.5-7.7-4.5-.6 0-3.4 4.2-6.2 9.4zM577.6 353.2c-2.2 3.4-3.7 11-2.4 12.5.5.7 2.6 1.5 4.6 1.9 4.6.9 6.2-1.2 6.2-8.2 0-5.3-.8-6.6-4.7-7.8-1.6-.5-2.6-.1-3.7 1.6zM617.1 373.1c-13.8 3.9-15.7 4.9-15.3 7.9.1 1.4 1.3 3.5 2.6 4.8 1.8 1.9 2.7 2.1 4.7 1.3 1.3-.5 7.7-2.6 14.2-4.6 6.4-1.9 11.7-4 11.7-4.5s-.8-2.5-1.7-4.5c-2-4.2-2.4-4.2-16.2-.4zM553 383.1c-3.6 1.1-10.1 3.1-14.5 4.3-4.4 1.3-14.9 4.5-23.2 7-8.4 2.6-15.8 4.4-16.4 4.1-.5-.4-1.6 0-2.2.8-.7.8-2.1 1.7-3.2 1.9-1.6.3-2.2-.4-3-3.7-1.1-4.2-3.9-5.6-4.1-2-.1 2.4-4.2 9.5-5.5 9.5-.5 0-.9-.6-.9-1.3 0-.7-.7-.3-1.5.7-1.5 2-1.6 2-6.8-.3-25.9-11.4-34.4-13.2-54.6-11.7-8.4.6-16.2 2.2-25.3 5-4.9 1.5-5.8 1.3-5.8-1.5 0-4.8-7.4-4.2-8.6.6-.5 2-1.2 2.5-3.9 2.5-3.8 0-6.5 3.2-6.5 7.7 0 3.4-5.7 8.5-8.7 7.7-3-.8-7.3 3.2-7.3 6.8 0 1.9-1.5 5.5-3.9 9.2-8.8 14-13.1 27.1-13.1 40.2 0 16.7 7.2 41.2 16.4 55.8 1.8 2.8 5.6 9.6 8.6 15.1 2.9 5.5 6.8 12.2 8.5 15 4 6.2 10.3 18.6 12.2 23.9 1.7 5 3.2 15.4 3.9 26.8l.4 8.8h-3.3c-1.8 0-4.3.8-5.7 1.7-2.2 1.6-2.3 1.6-1.7-.1.4-1 .7-2.2.7-2.6 0-.5 1-1.8 2.2-3 2-1.9 2.1-2.1.6-3.7-1.3-1.2-2-1.3-3-.5-1 .7-1.8.6-3.2-.4-5.3-3.9-12.6.1-12.6 6.8 0 5.9 6.6 9.7 11.9 6.8 1.7-.8 1.8-.3 1.9 6 0 5-.4 7-1.4 7.4-2.3.9-1.6 3.4 1.3 4.8 3.3 1.6 4.2 5.7 1.9 9-2.3 3.3-2 7.7.9 11.8 2.3 3.4 2.5 4.2 1.9 11.3-.5 4.9-1.1 7.7-1.9 7.7-1.6 0-5.5 4.3-5.5 6.1.1 1.9 1.9 4 5.2 6.1 2.8 1.8 3.4 4.3 5.7 22.8 1.3 10.3 3.9 28.4 4.9 34.9 1.1 6.5 3.6 8.8 6.2 5.6 1.1-1.4 1-12.4-.4-22.5-.2-1.9-.9-9.6-1.5-17-.7-7.4-1.6-15.8-2-18.5-.6-3.6-.5-5.9.5-8.3.7-1.8 1.8-7.8 2.4-13.4.5-5.6 1.1-10.2 1.3-10.3.1-.2 1.7-1 3.5-1.9 1.8-.9 3.6-2.4 3.9-3.1.7-2 5.2-.8 8 2.1 3.2 3.5 8.3 1.3 8.3-3.5 0-4.9-4.5-6.8-8.2-3.4-1.3 1.2-2.1 1.4-2.9.6-.6-.6-1.7-.9-2.4-.7-.8.3-1.5-.7-1.9-2.7-.8-4.2 1.7-7.3 5.2-6.4 1.6.4 3.1 0 4.3-1.1 2.6-2.3 3.5-1.3 6 7.2 3.5 12 3.9 13.8 3.9 19.6 0 6.6 1.4 10.4 4.2 11.1 7 1.9 10-9.1 5.8-21-1.1-3.2-2-5.9-2-6.1 0-.2 1.3-.1 2.8.3 2.1.4 3.3.1 4.6-1.4 1.8-2 1.8-2 8.5.4 13.8 4.9 25.8 7 39.5 7 11.7-.1 13.2.1 15.2 2 2.5 2.3 7.4 13.4 7.4 16.8 0 2.8 1.7 4.7 3.6 4 2.1-.8 1.7-8.4-.6-14.3-2.8-7.2-2.6-8.6 1.5-10 1.9-.6 3.5-1.5 3.5-2s1.4-1.7 3-2.7c1.7-.9 3-2.3 3-3 0-1.7 5.5-8.5 7.6-9.4.5-.2 2.6-2.9 4.7-6 4.3-6.4 4.6-9.7 1.6-15.4-4.8-9.1-5.9-11.5-5.9-13.6 0-1.2 2.4-6.9 5.3-12.7l5.2-10.5.2-21.4c.2-11.8.7-25.6 1.3-30.6 1.4-12.1 1.4-11.2.2-18.6-.8-4.4-3.1-10.3-7.3-18.4l-6.1-12-.3-14.2c-.4-16.6-1.1-18.5-11.5-32.7-4.6-6.3-5.7-8.4-4.9-9.5.7-.7 7.1-3.2 14.3-5.4 34.3-10.6 42.4-13.2 45.7-14.9 4.3-2.2 22.4-20.9 21.2-22-.7-.7-27.6-4.2-30.1-3.9-.4 0-3.6.9-7.2 2zM387 420c0 1.6-.4 3.1-1 3.5-1.4.9 0 3.5 2 3.5 1 0 2.5-1 3.3-2.3l1.6-2.2.7 3.2c.8 4.2 2.4 5.4 7.2 5.7 3.1.2 4-.1 4.8-1.8.7-1.6 2-2.2 5.7-2.4 2.6-.2 4.7 0 4.7.4 0 .3-1 2.4-2.2 4.5-1.2 2.1-1.9 4.2-1.5 4.5.3.3 2.5 0 4.9-.7 3.5-1.1 4.4-1.9 4.6-4.1l.3-2.6 6.5 1.8c9.1 2.5 9.4 2.9 5.6 9-1.8 2.8-3.2 5.8-3.2 6.6 0 .8 1.5 2.1 3.3 2.9 5.1 2.1 6.4 4.1 4.2 6.5-.9 1-3 2.2-4.5 2.5-1.5.3-3.5 1.4-4.4 2.4-1.4 1.6-1.4 2.1.1 6 1.9 4.9 1.3 5.9-4.3 6.8-5.2.8-6.2 1.7-9.2 8.5-2.8 6.7-3.7 6.9-12 3.8-2.9-1.1-5.8-2-6.6-2-.7 0-2.5 1.8-4 4-1.4 2.2-3.3 4-4 4-.8 0-3.5-3.3-6-7.4-4-6.3-5-7.3-7-6.9-1.7.4-2.7-.1-3.5-1.5-.7-1.4-.8-2.3-.1-2.7 1.9-1.1 1.1-3.7-.9-3-1 .3-2.3-.1-3.1-1-1-1.2-2.7-1.3-8.6-.8-4.4.3-7.4.2-7.4-.3 0-.6 2.3-3.2 5-5.9 5.3-5.2 6.7-9.5 3.2-9.5-2 0-4.2-2.1-6.1-5.8-1.1-2.1-.9-2.4 2.3-3.7 4.8-2 5.9-1.9 7.6.9.8 1.3 3.2 5 5.4 8.1l3.9 5.6-2.2 2.3c-3.1 3.3-2.6 5.1 1.9 7.1 3.2 1.5 4.5 1.6 6.5.7 1.4-.6 2.5-2 2.5-3 0-.9.7-2.8 1.6-4 2.3-3.3 1.1-7.1-2.5-7.8-3.6-.7-5.6-5.6-6.6-15.6-.7-7.5.3-10.5 3.7-11 1.6-.2 2.5-1.3 3.3-4.3.5-2.2 1.4-4.6 1.8-5.3 1.3-1.9 2.7-.4 2.7 2.8zm136.2 54c.3 4.7 1.1 10 1.7 11.9.6 1.9.8 3.8.4 4.4-1 1.6-11.1.2-13.4-1.9-5.5-4.9-4.4-14.1 2.4-19.9 2.4-2.1 5-3.5 6.2-3.3 1.8.3 2.1 1.3 2.7 8.8zm-49.7 1c5.7 1.3 10.5 6.7 10.5 11.9 0 5.8-4.9 11.8-12.9 15.8-5.4 2.8-7.5 3.3-13.3 3.3-10.6 0-17.8-4.5-17.8-11.3 0-7.4 7.9-15.3 18.9-18.8 6.4-2.1 9-2.2 14.6-.9zm55.8 65.9c3.3 1.3 7.1 10.2 6.2 14.8-.9 4.9-6.7 10.9-12.3 12.7-10 3.3-26.3 1.6-32.4-3.4l-2.3-1.8 1.9-3.6c1.7-3.2 7.3-8.6 11.6-11.1 1.4-.9 22.6-8.2 24.2-8.4.4-.1 1.8.3 3.1.8zM604.1 394.4c-.6.7-1.4 2.7-1.7 4.3-.6 3-.4 3.1 9.8 8.6 5.6 3 11.5 5.8 12.9 6.2 2.3.6 2.8.3 3.8-2.6.6-1.7 1.1-3.8 1.1-4.5 0-.8-4.8-3.7-10.7-6.5-6-2.8-11.5-5.5-12.4-6-1.1-.6-2.1-.4-2.8.5zM596 407.2c-3.1 3.4-2.5 6.1 2.5 10.7 5.3 4.8 8.1 5.1 10.5.9 1.4-2.7 1.4-2.8-3-7.3-6.3-6.5-7.5-7-10-4.3z"/><path d="M544.1 605.7c-1.7 2.1-3.1 4.1-3.1 4.5 0 .4-1.8 2.1-3.9 3.6-3.6 2.7-3.9 3.1-2.7 5.3 1 1.9 1.8 2.3 4.5 2.1 2.4-.3 4 .3 5.7 1.9 1.3 1.2 4.5 2.6 7.1 3.1 2.7.5 6 1.1 7.6 1.5 3.5.7 5.7-1.1 5.7-4.7 0-3.8 2.2-5.3 8-5.4 6.1-.1 7.8-1.5 6.2-5.1-1-2.2-1.8-2.5-6.1-2.5-2.7 0-6.1.4-7.4.9-3.7 1.4-6.4.3-8.6-3.5-1.3-2.1-2.5-3.2-3.4-2.8-.8.3-1.7-.2-2-1-1.1-2.7-4.4-1.8-7.6 2.1z"/></svg>